<svg width="18" height="18" viewBox="0 0 18 18" fill="none" xmlns="http://www.w3.org/2000/svg">
<path d="M14.7206 6.62871C14.4822 6.8656 14.1597 6.99856 13.8236 6.99856C13.4875 6.99856 13.1651 6.8656 12.9267 6.62871L11.8733 5.57533C11.6362 5.33694 11.5031 5.01438 11.5031 4.67815C11.5031 4.34192 11.6362 4.01936 11.8733 3.78098L14.2575 1.39551C14.2623 1.39097 14.2658 1.38534 14.2678 1.37911C14.2698 1.37288 14.2702 1.36625 14.2691 1.35981C14.2679 1.35337 14.2651 1.34732 14.261 1.34221C14.257 1.33709 14.2517 1.33307 14.2457 1.33049C12.7066 0.670794 10.7113 1.00699 9.4442 2.26494C8.23184 3.46817 8.16286 5.27799 8.60689 6.85746C8.66998 7.08197 8.66982 7.31954 8.60644 7.54397C8.54306 7.76839 8.41891 7.97095 8.2477 8.12929L1.64278 14.1613C1.44791 14.3341 1.29043 14.5449 1.18004 14.7808C1.06965 15.0167 1.00867 15.2727 1.00086 15.533C0.993045 15.7933 1.03856 16.0525 1.1346 16.2945C1.23064 16.5366 1.37519 16.7565 1.55934 16.9407C1.7435 17.1248 1.96338 17.2694 2.20546 17.3654C2.44754 17.4614 2.7067 17.507 2.96702 17.4991C3.22734 17.4913 3.48331 17.4303 3.71919 17.32C3.95508 17.2096 4.16589 17.0521 4.33866 16.8572L10.4385 10.2364C10.5948 10.0681 10.794 9.94549 11.0147 9.88173C11.2354 9.81797 11.4693 9.81546 11.6913 9.87448C13.2589 10.2943 15.0429 10.2154 16.2394 9.03439C17.5275 7.76574 17.8054 5.52339 17.181 4.24007C17.1782 4.23446 17.1741 4.2296 17.169 4.22589C17.164 4.22217 17.1581 4.21971 17.1519 4.21871C17.1457 4.2177 17.1394 4.21818 17.1334 4.2201C17.1274 4.22202 17.122 4.22533 17.1176 4.22976L14.7206 6.62871Z" fill="none" stroke="currentColor" stroke-miterlimit="10" stroke-linecap="round"/>
<path d="M3.046 15.5875C3.046 15.6616 2.98586 15.7218 2.91167 15.7218C2.83748 15.7218 2.77734 15.6616 2.77734 15.5875C2.77734 15.5133 2.83748 15.4531 2.91167 15.4531C2.98586 15.4531 3.046 15.5133 3.046 15.5875Z" fill="currentColor" stroke="currentColor"/>
</svg>
