<svg width="18" height="18" viewBox="0 0 18 18" fill="none" xmlns="http://www.w3.org/2000/svg">
<path d="M7.05658 9.29346L7.40393 8.94611L7.05658 9.29346C7.07867 9.31555 7.09223 9.34703 7.09223 9.38363C7.09223 9.42022 7.07867 9.4517 7.05658 9.47379L7.41013 9.82735L7.05658 9.47379L4.51081 12.0196C4.46924 12.0564 4.43116 12.065 4.41292 12.065C4.39487 12.065 4.37898 12.0617 4.36531 12.0562C4.3521 12.0509 4.33773 12.0423 4.32276 12.0273C4.30067 12.0052 4.28711 11.9737 4.28711 11.9371C4.28711 11.9005 4.30067 11.869 4.32276 11.8469L6.87624 9.29346C6.89833 9.27137 6.92981 9.25781 6.96641 9.25781C7.00301 9.25781 7.03449 9.27137 7.05658 9.29346Z" fill="currentColor" stroke="currentColor"/>
<path d="M6.9918 12.0924C6.97375 12.0924 6.95786 12.0891 6.94419 12.0836C6.93098 12.0783 6.91661 12.0696 6.90163 12.0546L4.34815 9.50114C4.32606 9.47905 4.3125 9.44757 4.3125 9.41097C4.3125 9.37437 4.32606 9.34289 4.34815 9.3208C4.37024 9.29871 4.40172 9.28516 4.43831 9.28516C4.47491 9.28516 4.50639 9.29871 4.52848 9.3208L7.08197 11.8743C7.10406 11.8964 7.11762 11.9279 7.11762 11.9645C7.11762 12.0011 7.10406 12.0325 7.08197 12.0546C7.067 12.0696 7.05262 12.0783 7.03941 12.0836C7.02574 12.0891 7.00985 12.0924 6.9918 12.0924Z" fill="currentColor" stroke="currentColor"/>
<path d="M10.2889 11.0104C10.0981 11.0104 9.94336 10.851 9.94336 10.6731C9.94336 10.4823 10.0944 10.3359 10.2722 10.3359H10.2889C10.4733 10.3359 10.6262 10.4888 10.6262 10.6731C10.6262 10.8607 10.4784 11.0104 10.2889 11.0104Z" fill="currentColor" stroke="currentColor"/>
<path d="M13.5878 11.0104C13.397 11.0104 13.2422 10.851 13.2422 10.6731C13.2422 10.4823 13.3932 10.3359 13.571 10.3359H13.5878C13.7721 10.3359 13.925 10.4888 13.925 10.6731C13.925 10.8575 13.7721 11.0104 13.5878 11.0104Z" fill="currentColor" stroke="currentColor"/>
<path d="M11.931 13.1594C11.4705 13.1594 11.0938 12.791 11.0938 12.3305V12.3138C11.0938 11.8533 11.4705 11.4766 11.931 11.4766C12.3914 11.4766 12.7682 11.8533 12.7682 12.3138C12.7682 12.7742 12.3998 13.1594 11.931 13.1594Z" fill="currentColor"/>
<path d="M11.931 9.86248C11.4705 9.86248 11.0938 9.49411 11.0938 9.03364V9.0169C11.0938 8.55643 11.4705 8.17969 11.931 8.17969C12.3914 8.17969 12.7682 8.55643 12.7682 9.0169C12.7682 9.47736 12.3998 9.86248 11.931 9.86248Z" fill="currentColor"/>
<path d="M11.5116 17.9988H6.48837C1.94233 17.9988 0 16.0565 0 11.5104V9.83603C0 5.28998 1.94233 3.34766 6.48837 3.34766H11.5116C16.0577 3.34766 18 5.28998 18 9.83603V11.5104C18 16.0565 16.0577 17.9988 11.5116 17.9988ZM6.48837 4.60347C2.62884 4.60347 1.25581 5.97649 1.25581 9.83603V11.5104C1.25581 15.37 2.62884 16.743 6.48837 16.743H11.5116C15.3712 16.743 16.7442 15.37 16.7442 11.5104V9.83603C16.7442 5.97649 15.3712 4.60347 11.5116 4.60347H6.48837Z" fill="currentColor"/>
<path d="M9.82967 4.60465H8.99246C8.18874 4.60465 7.52734 3.94326 7.52734 3.13953C7.52734 2.33581 8.18037 1.67442 8.98409 1.67442C9.11804 1.67442 9.21013 1.58233 9.21851 1.46512L9.22688 0.619535C9.23525 0.276279 9.51153 0 9.85479 0H9.86316C10.2064 0.00837209 10.4911 0.293023 10.4827 0.636279L10.4743 1.48186C10.4659 2.27721 9.80455 2.93023 9.0092 2.93023C8.87525 2.93023 8.79153 3.02233 8.79153 3.13953C8.79153 3.25674 8.88362 3.34884 9.00083 3.34884H9.83804C10.1813 3.34884 10.4659 3.63349 10.4659 3.97674C10.4659 4.32 10.1729 4.60465 9.82967 4.60465Z" fill="currentColor"/>
</svg>
