<svg width="16" height="18" viewBox="0 0 16 18" fill="none" xmlns="http://www.w3.org/2000/svg">
<path fill-rule="evenodd" clip-rule="evenodd" d="M3.11504 13.1064L7.62221 17.6212C6.66947 16.6462 5.97874 15.461 5.5955 14.1756C5.36676 13.4085 5.24756 12.6056 5.24756 11.7905C4.92556 9.32609 5.84212 7.09874 7.40271 5.53551L8.67805 4.29121L4.42693 0.00390625L3.11504 1.31801C1.55446 2.88125 0.677734 5.00145 0.677734 7.21217C0.677734 9.42297 1.55446 11.5432 3.11504 13.1064ZM4.42693 1.41932L3.82275 2.02452C2.44952 3.4001 1.67773 5.26613 1.67773 7.21217C1.67773 9.1583 2.44952 11.0243 3.82274 12.3999L4.70916 13.3789C4.66614 13.0156 4.36178 12.1599 4.36178 11.7905C4.36178 9.31501 4.89073 6.74064 6.63867 4.98975L7.31445 4.31396L4.42693 1.41932Z" fill="currentColor"/>
<path d="M12.5299 1.66737L12.5301 1.66752C13.2572 2.39518 13.834 3.25929 14.2276 4.21052C14.6212 5.16172 14.8238 6.18131 14.8238 7.21106C14.8238 8.24079 14.6212 9.26039 14.2276 10.2116C13.834 11.1628 13.2572 12.0269 12.5301 12.7546L12.5299 12.7547L7.99998 17.2923L7.03923 16.33C7.03922 16.33 7.03922 16.3299 7.03921 16.3299C5.5723 14.8605 4.74805 12.8674 4.74805 10.789C4.74805 8.71055 5.5723 6.71744 7.03922 5.24804L11.5719 0.707704L12.5299 1.66737Z" stroke="currentColor" fill="none"/>
</svg>
