<svg width="18" height="18" viewBox="0 0 18 18" fill="none" xmlns="http://www.w3.org/2000/svg">
<path d="M8.60011 13.1453H0.600008C0.576692 13.1453 0.551659 13.1359 0.530556 13.1148C0.509452 13.0937 0.5 13.0686 0.5 13.0453C0.5 13.022 0.509452 12.997 0.530556 12.9759C0.551659 12.9548 0.576692 12.9453 0.600008 12.9453H8.60011C8.62343 12.9453 8.64846 12.9548 8.66956 12.9759C8.69067 12.997 8.70012 13.022 8.70012 13.0453C8.70012 13.1008 8.65633 13.1453 8.60011 13.1453Z" fill="currentColor" stroke="currentColor"/>
<path d="M6.82392 17.0978H2.38382C1.54193 17.0978 1.12038 16.9444 0.890941 16.7168C0.662574 16.4902 0.507812 16.074 0.507812 15.2377V11.9577C0.507812 11.1214 0.662574 10.7052 0.890941 10.4786C1.12038 10.251 1.54193 10.0977 2.38382 10.0977H6.82392C7.6658 10.0977 8.08735 10.251 8.31679 10.4786C8.54516 10.7052 8.69992 11.1214 8.69992 11.9577V15.2457C8.69992 16.0775 8.54536 16.4917 8.31727 16.7173C8.08772 16.9444 7.66576 17.0978 6.82392 17.0978ZM2.37581 10.2977C2.10657 10.2977 1.86081 10.3024 1.65645 10.3341C1.44995 10.3661 1.21559 10.4352 1.02851 10.6199C0.840491 10.8055 0.769524 11.0394 0.736754 11.2458C0.704496 11.4489 0.69982 11.6926 0.69982 11.9577V15.2457C0.69982 15.5108 0.704496 15.7545 0.736754 15.9577C0.769524 16.164 0.840491 16.3979 1.02851 16.5835C1.21559 16.7683 1.44995 16.8373 1.65645 16.8693C1.86081 16.901 2.10657 16.9057 2.37581 16.9057H6.81591C7.08515 16.9057 7.33091 16.901 7.53527 16.8693C7.74177 16.8373 7.97613 16.7683 8.16321 16.5835C8.35123 16.3979 8.42219 16.164 8.45496 15.9577C8.48722 15.7545 8.4919 15.5108 8.4919 15.2457V11.9577C8.4919 11.6926 8.48722 11.4489 8.45496 11.2458C8.42219 11.0394 8.35123 10.8055 8.16321 10.6199C7.97613 10.4352 7.74177 10.3661 7.53527 10.3341C7.33091 10.3024 7.08515 10.2977 6.81591 10.2977H2.37581Z" fill="currentColor" stroke="currentColor"/>
<mask id="path-3-inside-1_12817_10395" fill="white">
<path d="M11.0013 17.5971C10.7853 17.5971 10.5853 17.4771 10.4813 17.2931C10.3773 17.1011 10.3773 16.8771 10.4893 16.6851L11.3293 15.2851C11.4973 15.0051 11.8654 14.9091 12.1534 15.0771C12.4414 15.2451 12.5294 15.6131 12.3614 15.9011L12.1454 16.2611C14.3534 15.7411 16.0094 13.7571 16.0094 11.3891C16.0094 11.0611 16.2814 10.7891 16.6094 10.7891C16.9374 10.7891 17.2094 11.0611 17.2094 11.3891C17.2014 14.8131 14.4174 17.5971 11.0013 17.5971Z"/>
</mask>
<path d="M11.0013 17.5971C10.7853 17.5971 10.5853 17.4771 10.4813 17.2931C10.3773 17.1011 10.3773 16.8771 10.4893 16.6851L11.3293 15.2851C11.4973 15.0051 11.8654 14.9091 12.1534 15.0771C12.4414 15.2451 12.5294 15.6131 12.3614 15.9011L12.1454 16.2611C14.3534 15.7411 16.0094 13.7571 16.0094 11.3891C16.0094 11.0611 16.2814 10.7891 16.6094 10.7891C16.9374 10.7891 17.2094 11.0611 17.2094 11.3891C17.2014 14.8131 14.4174 17.5971 11.0013 17.5971Z" fill="currentColor"/>
<path d="M10.4813 17.2931L9.60203 17.7694L9.60632 17.7774L9.61076 17.7852L10.4813 17.2931ZM10.4893 16.6851L9.63177 16.1706L9.62555 16.1813L10.4893 16.6851ZM11.3293 15.2851L10.4718 14.7706L10.4718 14.7706L11.3293 15.2851ZM12.3614 15.9011L13.2189 16.4157L13.2252 16.405L12.3614 15.9011ZM12.1454 16.2611L11.2879 15.7466L10.0693 17.7774L12.3746 17.2345L12.1454 16.2611ZM17.2094 11.3891L18.2094 11.3914V11.3891H17.2094ZM11.0013 16.5971C11.152 16.5971 11.2815 16.6766 11.3519 16.8011L9.61076 17.7852C9.88911 18.2777 10.4186 18.5971 11.0013 18.5971V16.5971ZM11.3606 16.8169C11.3868 16.8653 11.405 16.9279 11.4043 16.9988C11.4036 17.0704 11.3837 17.1365 11.3531 17.189L9.62555 16.1813C9.33287 16.683 9.33626 17.2788 9.60203 17.7694L11.3606 16.8169ZM11.3468 17.1996L12.1868 15.7996L10.4718 14.7706L9.63183 16.1706L11.3468 17.1996ZM12.1868 15.7996C12.0718 15.9914 11.832 16.0474 11.6495 15.9409L12.6572 14.2133C11.8987 13.7708 10.9229 14.0188 10.4718 14.7706L12.1868 15.7996ZM11.6495 15.9409C11.4379 15.8175 11.4006 15.5635 11.4976 15.3973L13.2252 16.405C13.6581 15.6628 13.4448 14.6727 12.6572 14.2133L11.6495 15.9409ZM11.5039 15.3866L11.2879 15.7466L13.0028 16.7757L13.2189 16.4156L11.5039 15.3866ZM12.3746 17.2345C15.0207 16.6113 17.0094 14.2348 17.0094 11.3891H15.0094C15.0094 13.2794 13.686 14.8709 11.9161 15.2878L12.3746 17.2345ZM17.0094 11.3891C17.0094 11.6134 16.8337 11.7891 16.6094 11.7891V9.78906C15.7291 9.78906 15.0094 10.5088 15.0094 11.3891H17.0094ZM16.6094 11.7891C16.3851 11.7891 16.2094 11.6134 16.2094 11.3891H18.2094C18.2094 10.5088 17.4897 9.78906 16.6094 9.78906V11.7891ZM16.2094 11.3867C16.2027 14.2616 13.8638 16.5971 11.0013 16.5971V18.5971C14.971 18.5971 18.2002 15.3646 18.2094 11.3914L16.2094 11.3867Z" fill="currentColor" mask="url(#path-3-inside-1_12817_10395)"/>
<path d="M6.20008 0.898438C6.2315 0.898438 6.26535 0.917202 6.28285 0.945154C6.3031 0.98533 6.30116 1.02152 6.28121 1.05677L5.44335 2.45322C5.41688 2.49733 5.35273 2.51734 5.3 2.48658C5.26213 2.46449 5.2369 2.40835 5.27095 2.34812L5.48481 1.99171L6.09409 0.976312L4.94145 1.24777C2.51436 1.81936 0.692007 3.99963 0.692007 6.60652H0.691851L0.692164 6.61901C0.692455 6.63066 0.68803 6.64939 0.668452 6.66897C0.648794 6.68863 0.623917 6.69852 0.600008 6.69852C0.576692 6.69852 0.551659 6.68907 0.530556 6.66797C0.509452 6.64687 0.5 6.62183 0.5 6.59852C0.5 3.45862 3.06018 0.898438 6.20008 0.898438Z" fill="currentColor" stroke="currentColor"/>
<path d="M13.7997 8.79855C11.4876 8.79855 9.59961 6.91852 9.59961 4.59849C9.59961 2.27846 11.4796 0.398438 13.7997 0.398438C16.1197 0.398438 17.9997 2.27846 17.9997 4.59849C17.9997 6.91852 16.1117 8.79855 13.7997 8.79855ZM13.7997 1.59845C12.1436 1.59845 10.7996 2.94247 10.7996 4.59849C10.7996 6.25451 12.1436 7.59853 13.7997 7.59853C15.4557 7.59853 16.7997 6.25451 16.7997 4.59849C16.7997 2.94247 15.4557 1.59845 13.7997 1.59845Z" fill="currentColor"/>
</svg>
