<svg width="18" height="18" viewBox="0 0 18 18" fill="none" xmlns="http://www.w3.org/2000/svg">
<path d="M17.9996 5.868V1.782C17.9996 0.513 17.4236 0 15.9926 0H12.3566C10.9256 0 10.3496 0.513 10.3496 1.782V5.859C10.3496 7.137 10.9256 7.641 12.3566 7.641H15.9926C17.4236 7.65 17.9996 7.137 17.9996 5.868Z" fill="currentColor" stroke="#fff"/>
<path d="M17.9996 15.9946V12.3586C17.9996 10.9276 17.4236 10.3516 15.9926 10.3516H12.3566C10.9256 10.3516 10.3496 10.9276 10.3496 12.3586V15.9946C10.3496 17.4256 10.9256 18.0016 12.3566 18.0016H15.9926C17.4236 18.0016 17.9996 17.4256 17.9996 15.9946Z" fill="currentColor" stroke="#fff" />
<path d="M7.65 5.868V1.782C7.65 0.513 7.074 0 5.643 0H2.007C0.576 0 0 0.513 0 1.782V5.859C0 7.137 0.576 7.641 2.007 7.641H5.643C7.074 7.65 7.65 7.137 7.65 5.868Z" fill="currentColor" stroke="#fff"/>
<path d="M7.65 15.9946V12.3586C7.65 10.9276 7.074 10.3516 5.643 10.3516H2.007C0.576 10.3516 0 10.9276 0 12.3586V15.9946C0 17.4256 0.576 18.0016 2.007 18.0016H5.643C7.074 18.0016 7.65 17.4256 7.65 15.9946Z" fill="currentColor" stroke="#fff"/>
</svg>
