<svg width="17" height="18" viewBox="0 0 17 18" fill="none" xmlns="http://www.w3.org/2000/svg">
<path d="M6.85599 17.1328L6.85408 17.1317L1.88412 14.2619C1.88382 14.2617 1.88353 14.2615 1.88323 14.2614C1.03105 13.7638 0.5 12.8478 0.5 11.8647V6.13951C0.5 5.15642 1.03103 4.24035 1.88319 3.74282C1.8835 3.74264 1.88381 3.74246 1.88412 3.74228L6.85408 0.872429L6.85408 0.872433L6.85599 0.871323C7.70408 0.3766 8.75949 0.37555 9.61803 0.872228L9.61838 0.872429L14.5883 3.74228C14.5887 3.74246 14.589 3.74264 14.5893 3.74282C15.4414 4.24035 15.9725 5.15642 15.9725 6.13951V11.8647C15.9725 12.8478 15.4414 13.7638 14.5892 14.2614C14.5889 14.2615 14.5886 14.2617 14.5883 14.2619L9.61838 17.1317L9.61648 17.1328C9.19512 17.3786 8.71372 17.5 8.23623 17.5C7.75874 17.5 7.27735 17.3786 6.85599 17.1328ZM6.98501 1.0927L6.985 1.09269L6.98178 1.09455L2.00991 3.9655L2.00873 3.96619C1.23677 4.41476 0.755523 5.23987 0.755523 6.13951V11.8647C0.755523 12.7548 1.23577 13.5888 2.00873 14.038L2.00991 14.0387L6.9806 16.9089C6.98076 16.909 6.98092 16.9091 6.98107 16.9092C7.75554 17.359 8.71692 17.359 9.49139 16.9092C9.49155 16.9091 9.4917 16.909 9.49186 16.9089L14.4626 14.0387L14.4637 14.038C15.2357 13.5894 15.7169 12.7643 15.7169 11.8647V6.13951C15.7169 5.24939 15.2367 4.41534 14.4637 3.96619L14.4626 3.9655L9.49068 1.09455L9.49069 1.09454L9.48745 1.0927C9.10332 0.874678 8.66685 0.759692 8.23623 0.759692C7.80561 0.759692 7.36914 0.874678 6.98501 1.0927Z" fill="currentColor" stroke="currentColor"/>
<path d="M8.23621 8.29271C7.08943 8.29271 6.1582 7.36148 6.1582 6.21469C6.1582 5.06791 7.08942 4.13672 8.23621 4.13672C9.383 4.13672 10.3142 5.06791 10.3142 6.21469C10.3142 7.36148 9.38299 8.29271 8.23621 8.29271ZM8.23621 4.39224C7.23188 4.39224 6.41373 5.21033 6.41373 6.21469C6.41373 7.21903 7.23186 8.03719 8.23621 8.03719C9.24056 8.03719 10.0587 7.21903 10.0587 6.21469C10.0587 5.21033 9.24054 4.39224 8.23621 4.39224Z" fill="currentColor" stroke="currentColor"/>
<path d="M11.5837 13.031C11.5527 13.031 11.5208 13.0184 11.4946 12.9923C11.4685 12.9661 11.4559 12.9342 11.4559 12.9033C11.4559 12.1383 11.0503 11.4777 10.4633 11.024C9.87644 10.5705 9.08681 10.3024 8.23559 10.3024C7.38436 10.3024 6.59474 10.5705 6.00785 11.024C5.42084 11.4777 5.01529 12.1383 5.01529 12.9033C5.01529 12.9342 5.00269 12.9661 4.97655 12.9923C4.9504 13.0184 4.91843 13.031 4.88753 13.031C4.85662 13.031 4.82465 13.0184 4.79851 12.9923C4.77236 12.9661 4.75977 12.9342 4.75977 12.9033C4.75977 11.4055 6.23619 10.0469 8.23559 10.0469C10.235 10.0469 11.7114 11.4055 11.7114 12.9033C11.7114 12.9342 11.6988 12.9661 11.6727 12.9923C11.6465 13.0184 11.6146 13.031 11.5837 13.031Z" fill="currentColor" stroke="currentColor"/>
</svg>
